<?xml version="1.0" encoding="UTF-8"?>
<!DOCTYPE svg PUBLIC "-//W3C//DTD SVG 1.1//EN" "http://www.w3.org/Graphics/SVG/1.1/DTD/svg11.dtd">
<!-- Creator: CorelDRAW -->
<svg xmlns="http://www.w3.org/2000/svg" xml:space="preserve" width="30px" height="30px" version="1.1" style="shape-rendering:geometricPrecision; text-rendering:geometricPrecision; image-rendering:optimizeQuality; fill-rule:evenodd; clip-rule:evenodd"
viewBox="0 0 30 30"
 xmlns:xlink="http://www.w3.org/1999/xlink"
 xmlns:xodm="http://www.corel.com/coreldraw/odm/2003">
 <defs>
  <style type="text/css">
   <![CDATA[
    .fil0 {fill:#1793D1;fill-rule:nonzero}
    .fil1 {fill:white;fill-rule:nonzero;fill-opacity:0.164706}
    .fil2 {fill:url(#id0);fill-rule:nonzero}
   ]]>
  </style>
  <linearGradient id="id0" gradientUnits="userSpaceOnUse" x1="497.02" y1="11.13" x2="470.96" y2="90.93">
   <stop offset="0" style="stop-opacity:0; stop-color:white"/>
   <stop offset="1" style="stop-opacity:0.27451; stop-color:white"/>
  </linearGradient>
 </defs>
 <g id="Слой_x0020_1">
  <metadata id="CorelCorpID_0Corel-Layer"/>
  <g id="_2400876068720">
   <path class="fil0" d="M15 0c-1.34,3.27 -2.15,5.42 -3.63,8.59 0.91,0.97 2.03,2.09 3.85,3.36 -1.96,-0.8 -3.29,-1.61 -4.29,-2.44 -1.9,3.97 -4.88,9.62 -10.93,20.49 4.75,-2.74 8.44,-4.44 11.87,-5.08 -0.14,-0.64 -0.22,-1.32 -0.22,-2.04l0.01 -0.15c0.07,-3.05 1.66,-5.39 3.53,-5.23 1.88,0.16 3.34,2.76 3.27,5.81 -0.02,0.57 -0.08,1.12 -0.2,1.63 3.4,0.67 7.05,2.35 11.74,5.06 -0.92,-1.7 -1.75,-3.24 -2.54,-4.7 -1.24,-0.96 -2.54,-2.21 -5.18,-3.57 1.82,0.47 3.12,1.02 4.13,1.63 -8.01,-14.93 -8.66,-16.91 -11.41,-23.36z"/>
   <path class="fil1" d="M23.44 17.83c-6.5,-8.82 -8.01,-15.94 -8.39,-17.64 3.47,8 3.45,8.1 8.39,17.64z"/>
   <path class="fil2" d="M15.06 0.13c-0.17,0.41 -0.33,0.81 -0.49,1.18 -0.17,0.42 -0.33,0.82 -0.49,1.22 -0.16,0.39 -0.32,0.77 -0.48,1.15 -0.16,0.38 -0.32,0.75 -0.48,1.13 -0.16,0.37 -0.33,0.75 -0.5,1.14 -0.17,0.39 -0.35,0.78 -0.54,1.19 -0.19,0.41 -0.39,0.83 -0.6,1.28 -0.03,0.06 -0.07,0.13 -0.1,0.19 0.91,0.97 2.03,2.08 3.84,3.34 -1.95,-0.8 -3.28,-1.6 -4.28,-2.44 -0.05,0.11 -0.09,0.2 -0.15,0.31 -0.07,0.14 -0.15,0.31 -0.22,0.45 -0.13,0.26 -0.27,0.53 -0.4,0.81 -0.06,0.11 -0.1,0.2 -0.16,0.31 -0.87,1.74 -1.95,3.83 -3.33,6.43 3.8,-2.15 7.9,-5.24 15.36,-2.58 -0.38,-0.71 -0.72,-1.37 -1.04,-1.99 -0.32,-0.63 -0.62,-1.21 -0.9,-1.77 -0.28,-0.55 -0.54,-1.07 -0.78,-1.56 -0.24,-0.5 -0.46,-0.96 -0.67,-1.41 -0.21,-0.45 -0.41,-0.88 -0.6,-1.29 -0.18,-0.41 -0.36,-0.81 -0.53,-1.2 -0.16,-0.39 -0.33,-0.77 -0.48,-1.15 -0.16,-0.38 -0.32,-0.76 -0.47,-1.14 -0.05,-0.14 -0.11,-0.28 -0.16,-0.42 -0.42,-0.99 -0.86,-2.01 -1.36,-3.18l0.01 0z"/>
  </g>
 </g>
</svg>
