<svg width="32" height="32" viewBox="0 0 32 32" fill="none" xmlns="http://www.w3.org/2000/svg">
<path d="M27.107 6.0551C25.0356 5.09504 22.8208 4.3973 20.5052 4C20.2208 4.50932 19.8886 5.19437 19.6595 5.73933C17.198 5.37262 14.7591 5.37262 12.3429 5.73933C12.1139 5.19437 11.7741 4.50932 11.4871 4C9.16908 4.3973 6.95167 5.0976 4.88026 6.06019C0.70219 12.3145 -0.430415 18.4135 0.135889 24.4259C2.907 26.4759 5.59255 27.7212 8.23277 28.5361C8.88465 27.6473 9.46605 26.7026 9.9669 25.7069C9.013 25.3478 8.09937 24.9047 7.2361 24.3903C7.46512 24.2222 7.68914 24.0465 7.90557 23.8657C13.1709 26.3053 18.8919 26.3053 24.0943 23.8657C24.3133 24.0465 24.5373 24.2222 24.7638 24.3903C23.898 24.9072 22.9818 25.3503 22.0279 25.7094C22.5288 26.7026 23.1077 27.6499 23.7621 28.5386C26.4048 27.7237 29.0929 26.4785 31.864 24.4259C32.5285 17.456 30.7289 11.413 27.107 6.0551ZM10.6842 20.7284C9.10363 20.7284 7.8074 19.2666 7.8074 17.4866C7.8074 15.7065 9.07595 14.2423 10.6842 14.2423C12.2926 14.2423 13.5887 15.704 13.5611 17.4866C13.5636 19.2666 12.2926 20.7284 10.6842 20.7284ZM21.3157 20.7284C19.735 20.7284 18.4388 19.2666 18.4388 17.4866C18.4388 15.7065 19.7073 14.2423 21.3157 14.2423C22.9239 14.2423 24.2202 15.704 24.1925 17.4866C24.1925 19.2666 22.9239 20.7284 21.3157 20.7284Z" fill="#5865F2"/>
</svg>
