<?xml version="1.0" encoding="UTF-8"?>
<!DOCTYPE svg PUBLIC "-//W3C//DTD SVG 1.1//EN" "http://www.w3.org/Graphics/SVG/1.1/DTD/svg11.dtd">
<!-- Creator: CorelDRAW -->
<svg xmlns="http://www.w3.org/2000/svg" xml:space="preserve" width="30px" height="30px" version="1.1" style="shape-rendering:geometricPrecision; text-rendering:geometricPrecision; image-rendering:optimizeQuality; fill-rule:evenodd; clip-rule:evenodd"
viewBox="0 0 30 30"
 xmlns:xlink="http://www.w3.org/1999/xlink"
 xmlns:xodm="http://www.corel.com/coreldraw/odm/2003">
 <defs>
  <style type="text/css">
   <![CDATA[
    .str0 {stroke:#3C6EB4;stroke-width:3.2;stroke-miterlimit:22.9256}
    .fil1 {fill:none;fill-rule:nonzero}
    .fil0 {fill:#294172;fill-rule:nonzero}
    .fil3 {fill:#3C6EB4;fill-rule:nonzero}
    .fil2 {fill:white;fill-rule:nonzero}
   ]]>
  </style>
 </defs>
 <g id="Слой_x0020_1">
  <metadata id="CorelCorpID_0Corel-Layer"/>
  <g id="_1862977304000">
   <path id="voice" class="fil0" d="M30 15c0,-8.28 -6.72,-15 -15,-15 -8.28,0 -14.99,6.71 -15,14.99l0 11.61c0,1.88 1.53,3.4 3.41,3.4l11.6 0c8.28,0 14.99,-6.72 14.99,-15z"/>
   <path id="in" class="fil1 str0" d="M8.65 15.97c0,0 5.39,0 5.39,0 0,0 0,5.39 0,5.39 0,2.98 -2.42,5.39 -5.39,5.39 -2.98,0 -5.39,-2.41 -5.39,-5.39 0,-2.98 2.41,-5.39 5.39,-5.39z"/>
   <path class="fil1 str0" d="M19.4 15.98c0,0 -5.39,0 -5.39,0 0,0 0,-5.39 0,-5.39 0,-2.98 2.42,-5.39 5.39,-5.39 2.98,0 5.39,2.41 5.39,5.39 0,2.97 -2.41,5.39 -5.39,5.39z"/>
   <g>
    <path id="free" class="fil2" d="M15.69 14.33l0 7.02c0,3.89 -3.15,7.04 -7.04,7.04 -0.59,0 -1.01,-0.06 -1.56,-0.21 -0.79,-0.21 -1.44,-0.86 -1.44,-1.62 0,-0.92 0.66,-1.58 1.66,-1.58 0.47,0 0.64,0.09 1.34,0.09 2.05,0 3.71,-1.66 3.71,-3.71l0 -3.23c0,-0.29 -0.23,-0.52 -0.52,-0.52l-2.44 -0.01c-0.91,0 -1.65,-0.72 -1.65,-1.63 0,-0.92 0.75,-1.64 1.67,-1.64l6.27 0zm0 0l0 0 0 0z"/>
   </g>
   <g>
    <path class="fil2" d="M12.36 17.62l0 -7.02c0,-3.89 3.16,-7.04 7.04,-7.04 0.59,0 1.01,0.06 1.56,0.21 0.8,0.2 1.45,0.86 1.45,1.62 0,0.91 -0.67,1.58 -1.67,1.58 -0.47,0 -0.64,-0.09 -1.34,-0.09 -2.05,0 -3.71,1.66 -3.71,3.71l0 3.23c0,0.29 0.23,0.52 0.52,0.52l2.44 0c0.91,0 1.65,0.73 1.65,1.64 0,0.92 -0.74,1.64 -1.66,1.64l-6.28 0zm0 0l0 0 0 0z"/>
   </g>
   <g>
    <path id="TM" class="fil3" d="M27.41 27.4c0,0 0,-0.62 0,-0.62l-0.28 0.65c0,0 -0.28,-0.65 -0.28,-0.65l0 0.62 -0.16 0 0 -0.98 0.17 0c0,0 0.27,0.63 0.27,0.63l0.27 -0.63 0.17 0 0 0.98 -0.16 0zm-1.16 -0.82l0 0.82 -0.17 0 0 -0.82 -0.28 0 0 -0.16 0.73 0 0 0.16 -0.28 0zm0 0l0 0 0 0z"/>
   </g>
  </g>
 </g>
</svg>
