<svg width="32" height="32" viewBox="0 0 32 32" fill="none" xmlns="http://www.w3.org/2000/svg">
<g clip-path="url(#clip0_900_24814)">
<path fill-rule="evenodd" clip-rule="evenodd" d="M1.75977 8.82552C2.4262 7.39061 3.36749 6.1367 4.47132 5.00441C6.9686 2.44011 9.99195 0.796702 13.5724 0.23635C18.5817 -0.548432 23.0665 0.609919 26.941 3.87936C27.1863 4.08642 27.2469 4.2066 26.9794 4.46143C25.6111 5.77327 24.2664 7.10826 22.9113 8.43313C22.7724 8.56923 22.6793 8.73575 22.4326 8.51421C19.0206 5.45182 13.4527 5.48657 9.82792 8.78932C8.58371 9.92306 7.69858 11.2827 7.11933 12.8407C7.0351 12.7871 6.94644 12.7378 6.86664 12.6785C5.16287 11.3956 3.46058 10.1098 1.75977 8.82552Z" fill="#D62B2A"/>
<path fill-rule="evenodd" clip-rule="evenodd" d="M7.07808 19.0972C7.56719 20.3134 8.17452 21.4645 9.07739 22.4419C11.3737 24.9266 14.2212 25.9995 17.6317 25.652C19.2158 25.4913 20.661 24.9642 22.0086 24.1563C22.1386 24.2692 22.2613 24.3908 22.3972 24.4951C23.9754 25.7027 25.5565 26.9088 27.1376 28.1149C25.3955 29.7366 23.337 30.8168 21.023 31.3902C15.5659 32.7411 10.5359 31.8868 6.06882 28.4335C4.22172 27.0058 2.76915 25.2422 1.74512 23.1543C3.52425 21.8005 5.30043 20.4481 7.07808 19.0972Z" fill="#47AC48"/>
<path fill-rule="evenodd" clip-rule="evenodd" d="M27.1383 28.115C25.5587 26.9088 23.9776 25.7041 22.3979 24.4951C22.262 24.3909 22.1378 24.2692 22.0093 24.1563C23.0791 23.3556 23.9716 22.4101 24.5583 21.2068C24.7918 20.7276 24.9558 20.2251 25.1124 19.7184C25.2188 19.368 25.1863 19.2319 24.7445 19.2362C22.1142 19.2579 19.4839 19.2478 16.8536 19.2463C16.2965 19.2463 16.2966 19.2463 16.2966 18.6816C16.2966 16.9354 16.3054 15.1878 16.2892 13.4415C16.2862 13.1042 16.3468 12.9753 16.7339 12.9768C21.5852 12.9912 26.4364 12.9869 31.2891 12.9811C31.5507 12.9811 31.7162 12.9999 31.7605 13.3112C32.3649 17.4683 31.8802 21.4414 29.6593 25.1105C28.9766 26.2355 28.1609 27.2607 27.1383 28.115Z" fill="#5D80C0"/>
<path fill-rule="evenodd" clip-rule="evenodd" d="M7.07756 19.0972C5.29991 20.4495 3.52373 21.8019 1.74608 23.1528C0.878675 21.5717 0.37774 19.8733 0.144266 18.1039C-0.26062 15.0386 0.184163 12.0892 1.51112 9.27581C1.58353 9.12088 1.67662 8.97609 1.75938 8.8255C3.46167 10.1098 5.16248 11.3941 6.86478 12.6785C6.94457 12.7393 7.03323 12.7871 7.11746 12.8406C6.40522 14.9228 6.44068 17.0078 7.07756 19.0972Z" fill="#F3C317"/>
</g>
<defs>
<clipPath id="clip0_900_24814">
<rect width="32" height="32" fill="white"/>
</clipPath>
</defs>
</svg>
