<?xml version="1.0" encoding="UTF-8"?>
<!DOCTYPE svg PUBLIC "-//W3C//DTD SVG 1.1//EN" "http://www.w3.org/Graphics/SVG/1.1/DTD/svg11.dtd">
<!-- Creator: CorelDRAW -->
<svg xmlns="http://www.w3.org/2000/svg" xml:space="preserve" width="30px" height="30px" version="1.1" style="shape-rendering:geometricPrecision; text-rendering:geometricPrecision; image-rendering:optimizeQuality; fill-rule:evenodd; clip-rule:evenodd"
viewBox="0 0 30 30"
 xmlns:xlink="http://www.w3.org/1999/xlink"
 xmlns:xodm="http://www.corel.com/coreldraw/odm/2003">
 <defs>
  <style type="text/css">
   <![CDATA[
    .fil0 {fill:black;fill-rule:nonzero}
   ]]>
  </style>
 </defs>
 <g id="Слой_x0020_1">
  <metadata id="CorelCorpID_0Corel-Layer"/>
  <g id="_1627147073040">
   <g>
    <path id="mark" class="fil0" d="M11.59 19.09l9.97 -7.37c0.49,-0.37 1.19,-0.23 1.42,0.34 1.23,2.96 0.68,6.51 -1.76,8.96 -2.44,2.44 -5.83,2.97 -8.94,1.75l-3.39 1.58c4.86,3.32 10.77,2.5 14.46,-1.2 2.92,-2.93 3.83,-6.92 2.98,-10.52l0.01 0.01c-1.23,-5.29 0.3,-7.41 3.44,-11.73 0.07,-0.1 0.15,-0.2 0.22,-0.31l-4.13 4.13 0 -0.01 -14.29 14.37 0.01 0zm0 0l0 0 0 0z"/>
   </g>
   <g>
    <path id="mark_0" class="fil0" d="M9.53 20.88c-3.49,-3.34 -2.89,-8.5 0.09,-11.48 2.2,-2.21 5.81,-3.11 8.95,-1.78l3.39 -1.57c-0.61,-0.44 -1.39,-0.91 -2.29,-1.24 -4.05,-1.67 -8.9,-0.84 -12.19,2.45 -3.17,3.17 -4.16,8.05 -2.45,12.21 1.28,3.11 -0.82,5.3 -2.93,7.52 -0.75,0.79 -1.5,1.58 -2.1,2.41l9.53 -8.52 0 0zm0 0l0 0 0 0z"/>
   </g>
  </g>
 </g>
</svg>
