<?xml version="1.0" encoding="UTF-8"?>
<!DOCTYPE svg PUBLIC "-//W3C//DTD SVG 1.1//EN" "http://www.w3.org/Graphics/SVG/1.1/DTD/svg11.dtd">
<!-- Creator: CorelDRAW -->
<svg xmlns="http://www.w3.org/2000/svg" xml:space="preserve" width="30px" height="30px" version="1.1" style="shape-rendering:geometricPrecision; text-rendering:geometricPrecision; image-rendering:optimizeQuality; fill-rule:evenodd; clip-rule:evenodd"
viewBox="0 0 30 30"
 xmlns:xlink="http://www.w3.org/1999/xlink"
 xmlns:xodm="http://www.corel.com/coreldraw/odm/2003">
 <defs>
  <style type="text/css">
   <![CDATA[
    .fil3 {fill:white;fill-rule:nonzero}
    .fil0 {fill:url(#id0);fill-rule:nonzero}
    .fil2 {fill:url(#id1);fill-rule:nonzero}
    .fil1 {fill:url(#id2);fill-rule:nonzero}
   ]]>
  </style>
  <linearGradient id="id0" gradientUnits="userSpaceOnUse" x1="31.09" y1="45.48" x2="0.96" y2="-0.41">
   <stop offset="0" style="stop-opacity:1; stop-color:#F30745"/>
   <stop offset="0.8" style="stop-opacity:1; stop-color:#F30745"/>
   <stop offset="0.980392" style="stop-opacity:1; stop-color:#FFBCCE"/>
   <stop offset="1" style="stop-opacity:1; stop-color:#FFBCCE"/>
  </linearGradient>
  <linearGradient id="id1" gradientUnits="userSpaceOnUse" x1="8.84" y1="21.22" x2="10.25" y2="12.44">
   <stop offset="0" style="stop-opacity:1; stop-color:white"/>
   <stop offset="0.14902" style="stop-opacity:1; stop-color:white"/>
   <stop offset="0.619608" style="stop-opacity:0.6; stop-color:white"/>
   <stop offset="1" style="stop-opacity:0; stop-color:white"/>
  </linearGradient>
  <linearGradient id="id2" gradientUnits="userSpaceOnUse" xlink:href="#id1" x1="13.92" y1="14.63" x2="8.15" y2="13.9">
  </linearGradient>
 </defs>
 <g id="Слой_x0020_1">
  <metadata id="CorelCorpID_0Corel-Layer"/>
  <g id="_2940767325728">
   <path class="fil0" d="M29.64 16.68c-1.38,12.06 -4.26,14.35 -16.32,12.96 -12.06,-1.38 -14.34,-4.26 -12.96,-16.32 1.38,-12.06 4.26,-14.35 16.32,-12.96 12.06,1.38 14.35,4.26 12.96,16.32l0 0z"/>
   <path class="fil1" d="M19.95 7.74c-1.22,0 -2.19,0.49 -3.16,1.92l-3.78 5.7 0.35 -4.43c0.11,-1.67 -0.95,-3.19 -2.81,-3.19 -1.73,0 -2.81,1.17 -2.92,2.65l-0.6 8.16c-0.13,2.03 0.92,3.19 2.6,3.19 1.67,0 2.73,-1.22 3.51,-2.32l3.65 -5.54 -0.33 4.67c-0.16,1.89 0.87,3.19 2.73,3.19 1.73,0 2.87,-1.03 2.98,-2.57l0.59 -8.24c0.14,-1.62 -0.65,-3.19 -2.81,-3.19l0 0z"/>
   <path class="fil2" d="M13.35 10.94l-0.35 4.43 0.14 4.05c-0.79,1.11 -1.84,2.32 -3.52,2.32 -1.67,0 -2.73,-1.16 -2.59,-3.18l0.59 -8.16c0.11,-1.49 1.19,-2.65 2.92,-2.65 1.87,0 2.92,1.51 2.81,3.19z"/>
   <path class="fil3" d="M13.36 10.7c0,-1.54 -1,-2.96 -2.83,-2.96 -1.84,0 -2.91,1.38 -2.91,2.87 0,1.59 1.2,2.83 2.87,2.83 1.68,0 2.87,-1.15 2.87,-2.74z"/>
  </g>
 </g>
</svg>
