<svg width="32" height="32" viewBox="0 0 32 32" fill="none" xmlns="http://www.w3.org/2000/svg">
<g clip-path="url(#clip0_388_3248)">
<path d="M29.6814 16.0019C29.6833 8.44741 23.5526 2.31847 15.9991 2.31847C8.49517 2.31941 2.31761 8.49702 2.31855 16.0009C2.31855 23.5058 8.49801 29.6797 16.0001 29.6815C23.5086 29.6843 29.6787 23.5077 29.6814 16.0019ZM0 16.0009C0 7.22031 7.21753 0 15.9991 0C24.8227 0 31.9981 7.17257 32 15.9972C32.0019 24.7759 24.7787 31.9972 16.0019 32C7.22036 32.0028 0 24.7816 0 16.0009Z" fill="#7F7F7F"/>
<path fill-rule="evenodd" clip-rule="evenodd" d="M15.5291 4.24586C15.9496 8.16676 19.1056 5.93908 20.4675 4.84396C20.9649 4.44991 21.5748 3.72451 21.9062 3.52046C22.1227 3.39316 22.4403 3.48304 22.5682 3.74978C22.6953 4.14383 22.7471 4.64085 22.5055 5.36625C22.2121 6.21895 21.7165 7.04637 21.4366 7.49191C20.711 8.66285 19.998 9.69339 19.1453 10.7754C17.7582 12.507 16.0013 13.8811 14.5505 15.5743C12.3228 18.1707 11.0629 22.1806 11.7499 25.5661C11.9287 26.431 12.3359 27.5261 13.1633 27.9838C18.0764 30.7085 21.6781 19.0234 20.0111 15.5743C19.782 15.1287 19.3239 14.3266 18.7129 14.4417C15.6325 15.0146 14.2069 25.0185 16.1284 25.7439C16.0351 26.928 14.1564 27.6534 13.6088 25.4641C13.4299 24.7003 13.3924 23.8981 13.4182 23.1091C13.5116 19.7741 16.1804 14.7338 19.2345 13.194C20.6226 12.4808 22.5826 12.4939 23.3585 14.0851C26.0953 19.7488 18.7 30.2115 12.2977 29.2567C9.20519 28.7859 8.08483 25.8207 8.32628 23.0071C8.5169 20.6914 9.48512 18.489 10.8217 16.6048C13.5202 12.8121 17.7706 11.7049 19.8326 8.7265C19.8326 8.7265 19.9111 8.6123 19.926 8.54865C19.9574 8.45505 19.8475 8.3446 19.7086 8.45505C19.4803 8.65911 18.2963 9.27031 17.4688 9.3714C15.8018 9.56234 14.8976 7.28411 14.6177 6.02426C14.555 5.7444 14.5392 5.52818 14.2741 5.88386C13.4598 6.9406 12.8355 12.8468 12.0081 13.1772L8.77515 14.4632C8.77515 14.4632 8.63558 14.5287 8.58459 14.3359C8.2159 12.961 11.5507 8.18829 12.4802 6.58399C12.6065 6.38088 13.3702 4.8917 13.5106 4.77657C13.7523 4.57346 15.224 4.19531 15.5291 4.24586Z" fill="#7F7F7F"/>
</g>
<defs>
<clipPath id="clip0_388_3248">
<rect width="32" height="32" fill="white"/>
</clipPath>
</defs>
</svg>
