<?xml version="1.0" encoding="UTF-8"?>
<!DOCTYPE svg PUBLIC "-//W3C//DTD SVG 1.1//EN" "http://www.w3.org/Graphics/SVG/1.1/DTD/svg11.dtd">
<!-- Creator: CorelDRAW -->
<svg xmlns="http://www.w3.org/2000/svg" xml:space="preserve" width="30px" height="30px" version="1.1" style="shape-rendering:geometricPrecision; text-rendering:geometricPrecision; image-rendering:optimizeQuality; fill-rule:evenodd; clip-rule:evenodd"
viewBox="0 0 30 30"
 xmlns:xlink="http://www.w3.org/1999/xlink"
 xmlns:xodm="http://www.corel.com/coreldraw/odm/2003"
 role="img">
 <defs>
  <style type="text/css">
   <![CDATA[
    .fil0 {fill:#00B0EA;fill-rule:nonzero}
    .fil1 {fill:#15374C;fill-rule:nonzero}
    .fil2 {fill:white;fill-rule:nonzero}
   ]]>
  </style>
 </defs>
 <g id="Слой_x0020_1">
  <metadata id="CorelCorpID_0Corel-Layer"/>
  <g id="_2221745806512">
   <g>
    <path id="path132" class="fil0" d="M15.8 2.05c-1.94,0 -3.78,0.41 -5.46,1.13l-3.02 -3.01c-3.19,1.39 -5.74,3.95 -7.12,7.15l3.02 3.02c-0.76,1.72 -1.15,3.58 -1.15,5.46 0,7.57 6.16,13.72 13.74,13.72 7.59,0 13.74,-6.15 13.74,-13.73 0,-7.59 -6.15,-13.74 -13.74,-13.74 0,0 -0.01,0 -0.01,0l0 0zm0 0l0 0 0 0z"/>
   </g>
   <path id="path134" class="fil1" d="M14.4 21.5c1.39,-3.2 3.93,-5.76 7.13,-7.16l-11.18 -11.16c-3.2,1.4 -5.75,3.96 -7.13,7.16l11.18 11.16z"/>
   <path id="path136" class="fil1" d="M22.32 18.14c-1.85,0.82 -3.33,2.31 -4.13,4.16l5.21 1.08 -1.08 -5.24z"/>
   <g id="g162">
    <g>
     <path id="path138" class="fil2" d="M22.32 18.15l-0.79 -3.81c-3.2,1.4 -5.75,3.96 -7.13,7.16l3.78 0.8c0.81,-1.85 2.28,-3.34 4.13,-4.16l0.01 0.01zm0 0l0 0 0 0z"/>
    </g>
   </g>
  </g>
 </g>
</svg>
