<?xml version="1.0" encoding="UTF-8"?>
<!DOCTYPE svg PUBLIC "-//W3C//DTD SVG 1.1//EN" "http://www.w3.org/Graphics/SVG/1.1/DTD/svg11.dtd">
<!-- Creator: CorelDRAW -->
<svg xmlns="http://www.w3.org/2000/svg" xml:space="preserve" width="30px" height="30px" version="1.1" style="shape-rendering:geometricPrecision; text-rendering:geometricPrecision; image-rendering:optimizeQuality; fill-rule:evenodd; clip-rule:evenodd"
viewBox="0 0 30 30"
 xmlns:xlink="http://www.w3.org/1999/xlink"
 xmlns:xodm="http://www.corel.com/coreldraw/odm/2003">
 <defs>
  <style type="text/css">
   <![CDATA[
    .fil0 {fill:#385C8E;fill-rule:nonzero}
   ]]>
  </style>
 </defs>
 <g id="Слой_x0020_1">
  <metadata id="CorelCorpID_0Corel-Layer"/>
  <path class="fil0" d="M28.12 13.36c0,0.02 0,0.03 0,0.05 0,1.92 -0.71,3.79 -2,5.22l-12.04 11.36 -3.08 -3c6.27,-4.83 11.81,-10.55 16.42,-16.99 0.46,1.03 0.7,2.15 0.7,3.28 0,0.03 0,0.05 0,0.08l0 0zm-27.39 16.17c-1,-1.06 0,-4.1 2.53,-7.99 0.27,0.27 0.73,0.69 1,0.94 -0.79,1.73 -1,2.99 -0.54,3.46 0.94,0.92 4.21,-1.77 4.21,-1.77l-5.93 -5.55c-1.28,-1.38 -2,-3.19 -2,-5.08 0,-0.06 0,-0.12 0,-0.18 0,-0.02 0,-0.05 0,-0.07 0,-4.25 3.43,-7.71 7.68,-7.76 2.55,0.04 4.94,1.32 6.39,3.42 1.43,-2.12 3.81,-3.42 6.37,-3.47 1.59,0.02 3.13,0.53 4.4,1.47 0.17,-0.24 2,-2.77 1.24,-3.55 -0.56,-0.56 -2.24,-0.14 -4.48,1.07l-2 0c4.84,-3.61 8.79,-5.31 10,-4.06 1.88,1.9 -3.06,10 -11,18 -7.93,7.99 -15.99,12.99 -17.87,11.12l0 0z"/>
 </g>
</svg>
