<?xml version="1.0" encoding="UTF-8"?>
<!DOCTYPE svg PUBLIC "-//W3C//DTD SVG 1.1//EN" "http://www.w3.org/Graphics/SVG/1.1/DTD/svg11.dtd">
<!-- Creator: CorelDRAW -->
<svg xmlns="http://www.w3.org/2000/svg" xml:space="preserve" width="30px" height="30px" version="1.1" style="shape-rendering:geometricPrecision; text-rendering:geometricPrecision; image-rendering:optimizeQuality; fill-rule:evenodd; clip-rule:evenodd"
viewBox="0 0 30 30"
 xmlns:xlink="http://www.w3.org/1999/xlink"
 xmlns:xodm="http://www.corel.com/coreldraw/odm/2003">
 <defs>
  <style type="text/css">
   <![CDATA[
    .fil1 {fill:black}
    .fil0 {fill:white;fill-rule:nonzero}
   ]]>
  </style>
 </defs>
 <g id="Слой_x0020_1">
  <metadata id="CorelCorpID_0Corel-Layer"/>
  <g id="_2350006732224">
   <path class="fil0" d="M2.42 1.29l16.64 -1.22c2.04,-0.18 2.57,-0.06 3.85,0.87l5.31 3.74c0.88,0.64 1.17,0.81 1.17,1.51l0 20.48c0,1.28 -0.47,2.04 -2.1,2.15l-19.32 1.17c-1.23,0.06 -1.81,-0.12 -2.45,-0.93l-3.92 -5.08c-0.7,-0.93 -0.99,-1.63 -0.99,-2.45l0 -18.2c0,-1.04 0.47,-1.92 1.81,-2.04l0 0z"/>
   <path class="fil1" d="M19.06 0.07l-16.64 1.22c-1.34,0.12 -1.81,1 -1.81,2.04l0 18.2c0,0.82 0.29,1.52 0.99,2.45l3.91 5.08c0.65,0.81 1.23,0.99 2.46,0.93l19.32 -1.17c1.63,-0.11 2.1,-0.87 2.1,-2.15l0 -20.48c0,-0.66 -0.26,-0.85 -1.04,-1.42 -0.04,-0.03 -0.09,-0.06 -0.13,-0.09l-5.31 -3.74c-1.28,-0.93 -1.81,-1.05 -3.85,-0.87zm-10.66 5.79c-1.57,0.1 -1.93,0.13 -2.83,-0.6l-2.28 -1.81c-0.23,-0.23 -0.11,-0.52 0.47,-0.58l16 -1.17c1.34,-0.11 2.04,0.35 2.57,0.76l2.74 1.98c0.12,0.06 0.41,0.41 0.06,0.41l-16.52 0.99 -0.21 0.02zm-1.84 20.63l0 -17.38c0,-0.76 0.24,-1.11 0.94,-1.17l18.97 -1.11c0.64,-0.05 0.93,0.36 0.93,1.11l0 17.27c0,0.76 -0.11,1.4 -1.16,1.46l-18.16 1.05c-1.05,0.05 -1.52,-0.3 -1.52,-1.23zm17.93 -16.45c0.11,0.53 0,1.05 -0.53,1.11l-0.87 0.18 0 12.83c-0.76,0.41 -1.46,0.64 -2.05,0.64 -0.93,0 -1.17,-0.29 -1.87,-1.17l-5.72 -8.98 0 8.69 1.81 0.41c0,0 0,1.05 -1.46,1.05l-4.02 0.23c-0.12,-0.23 0,-0.81 0.4,-0.93l1.05 -0.29 0 -11.49 -1.45 -0.12c-0.12,-0.53 0.17,-1.28 0.99,-1.34l4.32 -0.29 5.95 9.1 0 -8.05 -1.52 -0.18c-0.11,-0.64 0.35,-1.11 0.94,-1.16l4.03 -0.24z"/>
  </g>
 </g>
</svg>
