<svg width="32" height="32" viewBox="0 0 32 32" fill="none" xmlns="http://www.w3.org/2000/svg">
<g clip-path="url(#clip0_224_3595)">
<path d="M32 27.3173C32 29.9036 29.9141 32 27.3411 32H4.65885C2.08581 32 0 29.9036 0 27.3173V4.68275C0 2.09651 2.08581 0 4.65885 0H27.3411C29.9142 0 32 2.09651 32 4.68275V27.3173Z" fill="#FAAB62"/>
<path d="M31.8357 27.201C31.8357 29.7607 29.7712 31.8356 27.2246 31.8356H4.77531C2.22873 31.8356 0.164368 29.7607 0.164368 27.201V4.79896C0.164368 2.23932 2.22882 0.164368 4.77531 0.164368H27.2246C29.7712 0.164368 31.8357 2.2394 31.8357 4.79896V27.201Z" fill="#F7931E"/>
<path d="M15.9822 4.78253C12.8107 4.78253 10.2398 7.3667 10.2398 10.5543C10.2398 13.7421 12.8107 16.3264 15.9822 16.3264C19.1536 16.3264 21.7245 13.7421 21.7245 10.5543C21.7245 7.3667 19.1536 4.78253 15.9822 4.78253ZM15.9822 12.9404C14.6712 12.9404 13.6084 11.8721 13.6084 10.5544C13.6084 9.23673 14.6712 8.16849 15.9822 8.16849C17.2931 8.16849 18.3559 9.23673 18.3559 10.5544C18.3559 11.8721 17.2931 12.9404 15.9822 12.9404Z" fill="white"/>
<path d="M18.0095 20.919C20.3084 20.4483 21.686 19.354 21.7589 19.2953C22.4316 18.753 22.5396 17.7653 22.0001 17.0891C21.4607 16.4129 20.4781 16.3043 19.8053 16.8465C19.7911 16.8581 18.3217 17.991 15.9042 17.9926C13.4867 17.991 11.9863 16.8581 11.9721 16.8465C11.2992 16.3043 10.3167 16.4129 9.77724 17.0891C9.23775 17.7653 9.34581 18.753 10.0185 19.2953C10.0924 19.3548 11.5269 20.4776 13.8902 20.9373L10.5965 24.3971C9.99789 25.0211 10.0159 26.0146 10.6366 26.6162C10.9396 26.9099 11.3301 27.0558 11.7203 27.0558C12.1294 27.0558 12.5381 26.8952 12.8444 26.5758L15.9043 23.2995L19.2732 26.597C19.8836 27.2095 20.872 27.2085 21.4813 26.5953C22.0905 25.9819 22.0898 24.9882 21.4796 24.3758L18.0095 20.919Z" fill="white"/>
<path d="M15.9042 17.9926C15.9003 17.9926 15.908 17.9926 15.9042 17.9927C15.9004 17.9926 15.9081 17.9926 15.9042 17.9926Z" fill="white"/>
</g>
<defs>
<clipPath id="clip0_224_3595">
<rect width="32" height="32" fill="white"/>
</clipPath>
</defs>
</svg>
