<?xml version="1.0" encoding="UTF-8"?>
<!DOCTYPE svg PUBLIC "-//W3C//DTD SVG 1.1//EN" "http://www.w3.org/Graphics/SVG/1.1/DTD/svg11.dtd">
<!-- Creator: CorelDRAW -->
<svg xmlns="http://www.w3.org/2000/svg" xml:space="preserve" width="30px" height="30px" version="1.1" style="shape-rendering:geometricPrecision; text-rendering:geometricPrecision; image-rendering:optimizeQuality; fill-rule:evenodd; clip-rule:evenodd"
viewBox="0 0 30 30"
 xmlns:xlink="http://www.w3.org/1999/xlink"
 xmlns:xodm="http://www.corel.com/coreldraw/odm/2003">
 <defs>
  <style type="text/css">
   <![CDATA[
    .fil0 {fill:white}
   ]]>
  </style>
 </defs>
 <g id="Слой_x0020_1">
  <metadata id="CorelCorpID_0Corel-Layer"/>
  <path class="fil0" d="M5.6 0l8.54 7.87 0 0 0 -7.85 1.67 0 0 7.89 8.58 -7.91 0 8.97 3.52 0 0 12.95 -3.51 0 0 7.99 -8.59 -7.55 0 7.64 -1.67 0 0 -7.52 -8.53 7.52 0 -8.08 -3.52 0 0 -12.95 3.51 0 0 -8.97zm7.29 10.62l-9.14 0 0 9.66 1.86 0 0 -3.05 7.28 -6.61zm-5.62 7.34l0 8.37 6.87 -6.05 0 -8.56 -6.87 6.24zm8.59 2.24l0 -8.49 6.87 6.24 0 3.97 0.01 0 0 4.33 -6.88 -6.05zm8.54 0.08l1.85 0 0 -9.66 -9.07 0 7.22 6.54 0 3.12zm-1.67 -11.31l0 -5.19 -5.64 5.19 5.64 0zm-9.83 0l-5.64 0 0 -5.19 5.64 5.19z"/>
 </g>
</svg>
