<svg width="32" height="32" viewBox="0 0 32 32" fill="none" xmlns="http://www.w3.org/2000/svg">
<g clip-path="url(#clip0_220_3509)">
<path fill-rule="evenodd" clip-rule="evenodd" d="M1.53382 21.3386C1.13098 19.9128 1.03742 18.415 1.10414 16.9353C1.16903 15.4961 1.36965 14.0666 1.487 12.6307C2.79829 14.9103 4.56201 16.9141 6.55218 18.6378C6.55218 18.6378 6.55218 18.6378 6.55218 18.6378C8.53933 20.359 10.7556 21.8117 13.1009 23.004C15.2478 24.0955 17.507 24.9776 19.8461 25.5569C20.8473 25.8049 21.8637 25.9962 22.8901 26.0995C23.7574 26.1867 24.6335 26.2136 25.5005 26.124C23.482 27.6782 21.3454 29.1257 18.9651 30.0397C18.3041 30.3735 17.5929 30.6031 16.8678 30.7558C16.8678 30.7558 16.8678 30.7558 16.8678 30.7558C16.066 30.9248 15.2454 30.9997 14.4258 31C12.6244 31.0007 10.8251 30.6471 9.15044 29.9857C9.15044 29.9857 9.15044 29.9857 9.15044 29.9857C7.37187 29.2833 5.72992 28.2168 4.42455 26.8231C2.99388 25.2957 2.00304 23.3749 1.53382 21.3386Z" fill="url(#paint0_linear_220_3509)"/>
<path fill-rule="evenodd" clip-rule="evenodd" d="M25.4228 26.2652C24.6421 26.4743 23.8306 26.5517 23.0223 26.5658C22.0286 26.5832 21.0345 26.4992 20.052 26.3502C17.6798 25.9906 15.3699 25.2576 13.1932 24.2517C13.1932 24.2517 13.1932 24.2517 13.1932 24.2517C10.7201 23.1088 8.41403 21.5948 6.42988 19.7319C4.27554 17.7093 2.51764 15.2614 1.34527 12.5531C1.04628 11.4881 0.923921 10.3682 1.04808 9.26914C1.04808 9.26914 1.04808 9.26914 1.04808 9.26914C1.16072 8.2721 1.47864 7.29928 1.97209 6.42469C2.47049 5.54133 3.1413 4.75929 3.91192 4.09797C3.91192 4.09797 3.91192 4.09797 3.91192 4.09797C4.73623 3.39058 5.67286 2.818 6.66219 2.36715C8.87566 1.35843 11.3393 0.944734 13.7725 1.00587C16.5029 1.07448 19.2145 1.7544 21.66 2.96621C24.1874 4.21855 26.4362 6.01901 28.2352 8.18622C28.2352 8.18622 28.2352 8.18622 28.2352 8.18622C29.0871 9.21233 29.8381 10.3229 30.4541 11.5047C31.0313 12.6123 31.4906 13.7837 31.7791 14.9983C31.7791 14.9983 31.7791 14.9983 31.7791 14.9983C32.0466 16.1246 32.1657 17.2902 32.0744 18.444C32.0744 18.444 32.0744 18.444 32.0744 18.444C31.9873 19.5447 31.7024 20.6329 31.2041 21.619C30.6819 22.6524 29.9274 23.5637 29.0322 24.3004C27.9697 25.1749 26.7229 25.8098 25.4228 26.2652Z" fill="url(#paint1_radial_220_3509)"/>
<path fill-rule="evenodd" clip-rule="evenodd" d="M12.3563 4.74194C12.1727 5.40988 12.1705 6.12139 12.311 6.79964C12.4624 7.53032 12.7677 8.22356 13.1522 8.86373C13.5792 9.57448 14.1045 10.2238 14.6828 10.8189C15.3018 11.456 15.9832 12.0318 16.7055 12.5499C18.1404 13.5793 19.7363 14.4019 21.4387 14.8781C22.1933 15.0892 22.9712 15.2294 23.7549 15.2448C23.7549 15.2448 23.7549 15.2448 23.7549 15.2448C24.4407 15.2583 25.1352 15.1739 25.7746 14.9261C25.7746 14.9261 25.7746 14.9261 25.7746 14.9261C26.3138 14.591 26.8083 14.1772 27.197 13.6761C27.5314 13.245 27.7828 12.7497 27.9279 12.2243C28.0686 11.715 28.1111 11.1809 28.0756 10.6538C28.0388 10.1071 27.9205 9.56757 27.7483 9.0473C27.3892 7.96286 26.8062 6.95923 26.1017 6.05859C26.1017 6.05859 26.1017 6.05859 26.1017 6.05859C25.4624 5.24144 24.7213 4.49352 23.8541 3.92176C23.1446 3.45387 22.4108 3.02075 21.6452 2.6508C20.6692 2.17918 19.6391 1.80253 18.5681 1.63126C18.5681 1.63126 18.5681 1.63126 18.5681 1.63126C18.0182 1.54332 17.4579 1.51176 16.903 1.55917C16.903 1.55917 16.903 1.55917 16.903 1.55917C16.3385 1.60741 15.7803 1.73956 15.2596 1.96202C14.6905 2.20515 14.1694 2.55538 13.7175 2.97715C13.172 3.48625 12.7251 4.09416 12.3563 4.74194Z" fill="url(#paint2_radial_220_3509)"/>
<path fill-rule="evenodd" clip-rule="evenodd" d="M1.14679 15.3279C2.24679 17.738 3.94476 19.8629 6.00269 21.5376C7.98113 23.1477 10.2703 24.3604 12.6769 25.2137C14.9415 26.0166 17.3161 26.5124 19.714 26.6789C20.7789 26.7528 21.849 26.7607 22.9137 26.6833C23.8384 26.6162 24.7603 26.4863 25.6583 26.2562C26.9651 25.7118 28.263 25.0908 29.3281 24.1604C29.9035 23.6578 30.4043 23.0709 30.8111 22.4252C31.2965 21.6545 31.6502 20.8059 31.906 19.9323C31.906 19.9323 31.906 19.9323 31.906 19.9323C31.3716 20.7061 30.6305 21.3339 29.7833 21.7459C29.7833 21.7459 29.7833 21.7459 29.7833 21.7459C28.8565 22.1968 27.8262 22.4067 26.7975 22.4798C25.5466 22.5686 24.2882 22.4639 23.0489 22.2733C21.5573 22.0439 20.0879 21.6852 18.6384 21.2662C16.5102 20.651 14.4303 19.8643 12.4425 18.8885C12.4425 18.8885 12.4425 18.8885 12.4425 18.8885C10.4819 17.926 8.60103 16.7793 6.95041 15.3517C5.46415 14.0663 4.15452 12.5306 3.38512 10.7257C3.0196 9.86823 2.7839 8.95454 2.70724 8.02606C2.62574 7.03905 2.72442 6.04003 2.96972 5.08032C2.9561 5.08437 2.94649 5.09645 2.93641 5.10643C2.93641 5.10643 2.93641 5.10643 2.93641 5.10643C2.91542 5.12719 2.89616 5.14964 2.87729 5.17233C2.87729 5.17233 2.87729 5.17233 2.87729 5.17233C2.8119 5.25097 2.7521 5.33408 2.694 5.4182C2.694 5.4182 2.694 5.4182 2.694 5.4182C2.49322 5.70888 2.31632 6.01544 2.15353 6.32882C1.63245 7.33193 1.26379 8.41408 1.06828 9.52667C1.02807 9.75548 1.03586 9.98993 1.04259 10.2221C1.05215 10.552 1.07777 10.8812 1.11291 11.2093C1.14893 11.5457 1.19501 11.8811 1.25887 12.2133C1.25887 12.2133 1.25887 12.2134 1.25887 12.2133C1.30755 12.4667 1.35963 12.7217 1.46009 12.9594C1.42624 13.395 1.38351 13.83 1.32989 14.2637C1.30438 14.4701 1.27642 14.6762 1.24195 14.8812C1.2167 15.0314 1.19034 15.1819 1.14679 15.3279Z" fill="url(#paint3_linear_220_3509)"/>
<path fill-rule="evenodd" clip-rule="evenodd" d="M12.4779 7.20865C12.9774 8.66172 13.8219 9.99003 14.8937 11.0939C15.907 12.1374 17.1124 12.9884 18.4106 13.6482C18.4106 13.6482 18.4106 13.6482 18.4106 13.6482C19.5936 14.2494 20.8558 14.6988 22.1569 14.9637C22.1569 14.9637 22.1569 14.9637 22.1569 14.9637C22.7131 15.0769 23.2768 15.1559 23.8437 15.1857C24.3167 15.2105 24.7928 15.2027 25.2611 15.1325C25.6527 14.9435 26.0372 14.7362 26.387 14.4785C26.7912 14.1808 27.1469 13.8139 27.4088 13.3865C27.733 12.8576 27.908 12.2463 27.9667 11.6294C27.9667 11.6294 27.9667 11.6294 27.9667 11.6294C28.0511 10.7417 27.9183 9.84523 27.7006 8.98036C27.56 9.53319 27.3544 10.0738 27.045 10.5536C26.7943 10.9425 26.472 11.2876 26.0889 11.5481C25.7314 11.7911 25.3248 11.9587 24.9033 12.0567C24.9033 12.0567 24.9033 12.0567 24.9033 12.0567C24.4642 12.1587 24.0102 12.1884 23.5596 12.1724C22.5789 12.1375 21.6155 11.8995 20.6822 11.5971C20.6822 11.5971 20.6822 11.5971 20.6822 11.5971C19.7782 11.3042 18.8991 10.9407 18.026 10.5661C17.2715 10.2394 16.5352 9.86516 15.8536 9.40612C15.2287 8.98528 14.6481 8.48986 14.1873 7.8949C13.7436 7.32205 13.4221 6.65262 13.278 5.94336C13.278 5.94336 13.278 5.94336 13.278 5.94336C13.1119 5.12549 13.1762 4.27264 13.3765 3.4624C13.3656 3.46627 13.3554 3.47206 13.3453 3.47763C13.3251 3.48871 13.3055 3.50084 13.2862 3.51349C13.2224 3.55546 13.1625 3.60328 13.1058 3.65442C12.9149 3.82647 12.7609 4.03705 12.6421 4.26452C12.4573 4.6184 12.3588 5.01294 12.321 5.41011C12.2638 6.0118 12.3398 6.62013 12.4779 7.20865Z" fill="url(#paint4_linear_220_3509)"/>
</g>
<defs>
<linearGradient id="paint0_linear_220_3509" x1="9.05022" y1="9.48389" x2="18.7924" y2="34.1201" gradientUnits="userSpaceOnUse">
<stop stop-color="#CF6E05"/>
<stop offset="1" stop-color="#7C4112"/>
</linearGradient>
<radialGradient id="paint1_radial_220_3509" cx="0" cy="0" r="1" gradientUnits="userSpaceOnUse" gradientTransform="translate(9.26977 7.49954) rotate(21.1083) scale(24.9196 12.5062)">
<stop stop-color="#EDBD3D"/>
<stop offset="1" stop-color="#EC7700"/>
</radialGradient>
<radialGradient id="paint2_radial_220_3509" cx="0" cy="0" r="1" gradientUnits="userSpaceOnUse" gradientTransform="translate(15.059 5.12211) rotate(17.7979) scale(15.4966 10.7786)">
<stop stop-color="#C02525"/>
<stop offset="1" stop-color="#7C1902"/>
</radialGradient>
<linearGradient id="paint3_linear_220_3509" x1="48.0046" y1="72.9695" x2="12.3549" y2="8.20505" gradientUnits="userSpaceOnUse">
<stop stop-color="#C10000"/>
<stop offset="1" stop-opacity="0"/>
</linearGradient>
<linearGradient id="paint4_linear_220_3509" x1="40.3982" y1="23.8421" x2="12.4937" y2="3.23783" gradientUnits="userSpaceOnUse">
<stop stop-color="#8B0E0E" stop-opacity="0.363158"/>
<stop offset="1" stop-opacity="0"/>
</linearGradient>
<clipPath id="clip0_220_3509">
<rect width="32" height="32" fill="white"/>
</clipPath>
</defs>
</svg>
