<?xml version="1.0" encoding="UTF-8"?>
<!DOCTYPE svg PUBLIC "-//W3C//DTD SVG 1.1//EN" "http://www.w3.org/Graphics/SVG/1.1/DTD/svg11.dtd">
<!-- Creator: CorelDRAW -->
<svg xmlns="http://www.w3.org/2000/svg" xml:space="preserve" width="30px" height="30px" version="1.1" style="shape-rendering:geometricPrecision; text-rendering:geometricPrecision; image-rendering:optimizeQuality; fill-rule:evenodd; clip-rule:evenodd"
viewBox="0 0 30 30"
 xmlns:xlink="http://www.w3.org/1999/xlink"
 xmlns:xodm="http://www.corel.com/coreldraw/odm/2003"
 role="img"
 inkscape:version="0.92.4 (5da689c313, 2019-01-14)"
 sodipodi:docname="Viber_logo_2018r.svg"
 xmlns:inkscape="http://www.inkscape.org/namespaces/inkscape"
 xmlns:sodipodi="http://sodipodi.sourceforge.net/DTD/sodipodi-0.dtd">
 <defs>
  <style type="text/css">
   <![CDATA[
    .fil0 {fill:orangered;fill-rule:nonzero}
    .fil1 {fill:white;fill-rule:nonzero}
   ]]>
  </style>
 </defs>
 <g id="Слой_x0020_1">
  <metadata id="CorelCorpID_0Corel-Layer"/>
  <sodipodi:namedview bordercolor="#666666" borderopacity="1" gridtolerance="10" guidetolerance="10" inkscape:current-layer="Layer_1" inkscape:cx="253.745" inkscape:cy="38.5" inkscape:pageopacity="0" inkscape:pageshadow="2" inkscape:window-height="480" inkscape:window-maximized="0" inkscape:window-width="640" inkscape:window-x="0" inkscape:window-y="0" inkscape:zoom=".256" objecttolerance="10" pagecolor="#ffffff" showgrid="false"/>
  <g id="_2221801074784">
   <g>
    <circle class="fil0" cx="14.97" cy="15.01" r="14.69"/>
    <path class="fil1" d="M24.77 15.01c0,-1.19 -0.96,-2.15 -2.15,-2.15 -0.59,0 -1.1,0.22 -1.48,0.6 -1.46,-1.05 -3.49,-1.74 -5.72,-1.82l0.98 -4.59 3.18 0.67c0.03,0.81 0.7,1.46 1.53,1.46 0.84,0 1.53,-0.69 1.53,-1.53 0,-0.84 -0.69,-1.53 -1.53,-1.53 -0.6,0 -1.12,0.34 -1.36,0.86l-3.56 -0.76c-0.1,-0.01 -0.2,0 -0.29,0.05 -0.09,0.06 -0.14,0.14 -0.17,0.25l-1.09 5.12c-2.28,0.07 -4.33,0.74 -5.8,1.82 -0.38,-0.36 -0.92,-0.6 -1.48,-0.6 -1.19,0 -2.15,0.96 -2.15,2.15 0,0.87 0.51,1.61 1.27,1.95 -0.03,0.21 -0.05,0.43 -0.05,0.66 0,3.3 3.83,5.96 8.58,5.96 4.74,0 8.57,-2.66 8.57,-5.96 0,-0.23 -0.02,-0.43 -0.05,-0.64 0.7,-0.34 1.24,-1.1 1.24,-1.97l0 0zm-14.7 1.53c0,-0.85 0.69,-1.53 1.53,-1.53 0.84,0 1.53,0.68 1.53,1.53 0,0.84 -0.69,1.52 -1.53,1.52 -0.84,0 -1.53,-0.68 -1.53,-1.52zm8.54 4.03c-1.04,1.05 -3.04,1.12 -3.62,1.12 -0.59,0 -2.6,-0.08 -3.63,-1.12 -0.15,-0.15 -0.15,-0.41 0,-0.56 0.16,-0.16 0.41,-0.16 0.57,0 0.65,0.65 2.06,0.89 3.08,0.89 1.01,0 2.4,-0.24 3.07,-0.89 0.16,-0.16 0.41,-0.16 0.57,0 0.12,0.17 0.12,0.41 -0.04,0.56zm-0.27 -2.51c-0.84,0 -1.53,-0.68 -1.53,-1.52 0,-0.85 0.69,-1.53 1.53,-1.53 0.84,0 1.53,0.68 1.53,1.53 0,0.84 -0.69,1.52 -1.53,1.52z"/>
   </g>
  </g>
 </g>
</svg>
