<?xml version="1.0" encoding="UTF-8"?>
<!DOCTYPE svg PUBLIC "-//W3C//DTD SVG 1.1//EN" "http://www.w3.org/Graphics/SVG/1.1/DTD/svg11.dtd">
<!-- Creator: CorelDRAW -->
<svg xmlns="http://www.w3.org/2000/svg" xml:space="preserve" width="30px" height="30px" version="1.1" style="shape-rendering:geometricPrecision; text-rendering:geometricPrecision; image-rendering:optimizeQuality; fill-rule:evenodd; clip-rule:evenodd"
viewBox="0 0 30 30"
 xmlns:xlink="http://www.w3.org/1999/xlink"
 xmlns:xodm="http://www.corel.com/coreldraw/odm/2003">
 <defs>
  <style type="text/css">
   <![CDATA[
    .fil0 {fill:#BCBBBC;fill-rule:nonzero}
    .fil1 {fill:#F48023;fill-rule:nonzero}
   ]]>
  </style>
 </defs>
 <g id="Слой_x0020_1">
  <metadata id="CorelCorpID_0Corel-Layer"/>
  <g id="_2084094077312">
   <polygon id="path24" class="fil0" points="23.73,27.32 23.73,19.29 26.41,19.29 26.41,30 2.33,30 2.33,19.29 5.01,19.29 5.01,27.32 "/>
   <path id="path26" class="fil1" d="M7.69 24.65l13.38 0 0 -2.68 -13.38 0 0 2.68zm11.99 -24.65l-2.15 1.6 7.99 10.74 2.15 -1.6 -7.99 -10.74zm-6.64 6.33l10.29 8.57 1.71 -2.06 -10.28 -8.57 -1.72 2.06zm-3.35 5.95l12.13 5.65 1.13 -2.42 -12.13 -5.65 -1.13 2.42zm-1.74 6.27l13.1 2.76 0.55 -2.62 -13.1 -2.76 -0.55 2.62z"/>
  </g>
 </g>
</svg>
