<svg width="32" height="32" viewBox="0 0 32 32" fill="none" xmlns="http://www.w3.org/2000/svg">
<g clip-path="url(#clip0_218_3504)">
<path d="M16 32C24.8366 32 32 24.8366 32 16C32 7.16344 24.8366 0 16 0C7.16344 0 0 7.16344 0 16C0 24.8366 7.16344 32 16 32Z" fill="url(#paint0_linear_218_3504)"/>
<path d="M10.8305 17.1696L12.7288 22.4237C12.7288 22.4237 12.9661 22.9153 13.2203 22.9153C13.4744 22.9153 17.2543 18.983 17.2543 18.983L21.4576 10.8644L10.8983 15.8133L10.8305 17.1696Z" fill="#C8DAEA"/>
<path d="M13.3475 18.5171L12.9831 22.3899C12.9831 22.3899 12.8305 23.5766 14.0169 22.3899C15.2033 21.2032 16.3389 20.2882 16.3389 20.2882" fill="#A9C6D8"/>
<path d="M10.8648 17.3571L6.96 16.0848C6.96 16.0848 6.49333 15.8955 6.6436 15.4661C6.67453 15.3776 6.73693 15.3023 6.9236 15.1728C7.7888 14.5697 22.9377 9.12481 22.9377 9.12481C22.9377 9.12481 23.3655 8.98068 23.6177 9.07654C23.6801 9.09586 23.7363 9.13141 23.7805 9.17955C23.8246 9.2277 23.8552 9.2867 23.8691 9.35054C23.8963 9.4633 23.9077 9.5793 23.9029 9.69521C23.9017 9.79548 23.8896 9.88841 23.8804 10.0341C23.7881 11.5228 21.0271 22.6332 21.0271 22.6332C21.0271 22.6332 20.8619 23.2833 20.27 23.3056C20.1245 23.3103 19.9796 23.2857 19.8439 23.2332C19.7082 23.1807 19.5844 23.1014 19.48 23C18.3185 22.0009 14.3041 19.3031 13.4171 18.7097C13.3971 18.6961 13.3802 18.6783 13.3676 18.6576C13.3551 18.6369 13.3471 18.6138 13.3443 18.5897C13.3319 18.5272 13.3999 18.4497 13.3999 18.4497C13.3999 18.4497 20.39 12.2364 20.576 11.5841C20.5904 11.5336 20.536 11.5087 20.4629 11.5308C19.9987 11.7016 11.9504 16.7841 11.0621 17.3451C10.9982 17.3644 10.9306 17.3685 10.8648 17.3571Z" fill="white"/>
</g>
<defs>
<linearGradient id="paint0_linear_218_3504" x1="16" y1="32" x2="16" y2="0" gradientUnits="userSpaceOnUse">
<stop stop-color="#1D93D2"/>
<stop offset="1" stop-color="#38B0E3"/>
</linearGradient>
<clipPath id="clip0_218_3504">
<rect width="32" height="32" fill="white"/>
</clipPath>
</defs>
</svg>
