<?xml version="1.0" encoding="UTF-8"?>
<!DOCTYPE svg PUBLIC "-//W3C//DTD SVG 1.1//EN" "http://www.w3.org/Graphics/SVG/1.1/DTD/svg11.dtd">
<!-- Creator: CorelDRAW -->
<svg xmlns="http://www.w3.org/2000/svg" xml:space="preserve" width="30px" height="30px" version="1.1" style="shape-rendering:geometricPrecision; text-rendering:geometricPrecision; image-rendering:optimizeQuality; fill-rule:evenodd; clip-rule:evenodd"
viewBox="0 0 30 30"
 xmlns:xlink="http://www.w3.org/1999/xlink"
 xmlns:xodm="http://www.corel.com/coreldraw/odm/2003"
 role="img"
 inkscape:version="0.92.4 (5da689c313, 2019-01-14)"
 sodipodi:docname="Viber_logo_2018r.svg"
 xmlns:inkscape="http://www.inkscape.org/namespaces/inkscape"
 xmlns:sodipodi="http://sodipodi.sourceforge.net/DTD/sodipodi-0.dtd">
 <defs>
  <style type="text/css">
   <![CDATA[
    .fil2 {fill:black;fill-rule:nonzero}
    .fil0 {fill:#00F2EA;fill-rule:nonzero}
    .fil1 {fill:#FF004F;fill-rule:nonzero}
   ]]>
  </style>
 </defs>
 <g id="Слой_x0020_1">
  <metadata id="CorelCorpID_0Corel-Layer"/>
  <sodipodi:namedview bordercolor="#666666" borderopacity="1" gridtolerance="10" guidetolerance="10" inkscape:current-layer="Layer_1" inkscape:cx="253.745" inkscape:cy="38.5" inkscape:pageopacity="0" inkscape:pageshadow="2" inkscape:window-height="480" inkscape:window-maximized="0" inkscape:window-width="640" inkscape:window-x="0" inkscape:window-y="0" inkscape:zoom=".256" objecttolerance="10" pagecolor="#ffffff" showgrid="false"/>
  <g id="_2221719268848">
   <g>
    <path class="fil0" d="M12.27 11.77l0 -1.15c-0.4,-0.06 -0.8,-0.09 -1.2,-0.09 -4.92,0 -8.92,4 -8.92,8.92 0,3.02 1.51,5.69 3.81,7.3 -1.54,-1.64 -2.4,-3.81 -2.4,-6.07 0,-4.85 3.89,-8.8 8.71,-8.91z"/>
    <g>
     <path class="fil0" d="M12.48 24.75c2.2,0 3.99,-1.74 4.07,-3.92l0 -19.42 3.55 0c-0.07,-0.4 -0.11,-0.81 -0.11,-1.23l-4.85 0 -0.01 19.42c-0.08,2.18 -1.87,3.92 -4.06,3.92 -0.66,0 -1.31,-0.16 -1.89,-0.46 0.76,1.06 1.99,1.69 3.3,1.69l0 0zm14.25 -16.74l0 -1.08c-1.3,0 -2.58,-0.38 -3.67,-1.09 0.95,1.1 2.24,1.86 3.67,2.17l0 0zm0 0l0 0 0 0z"/>
    </g>
    <g>
     <path class="fil1" d="M23.06 5.83c-1.07,-1.22 -1.66,-2.79 -1.66,-4.41l-1.3 0c0.34,1.81 1.41,3.41 2.96,4.41l0 0zm-11.99 9.55c-2.25,0 -4.07,1.82 -4.07,4.07 0,1.52 0.84,2.9 2.18,3.61 -0.5,-0.69 -0.77,-1.53 -0.77,-2.38 0,-2.25 1.82,-4.07 4.07,-4.07 0.42,0 0.82,0.07 1.2,0.19l0 -4.95c-0.4,-0.06 -0.8,-0.09 -1.2,-0.09 -0.07,0 -0.14,0.01 -0.21,0.01l0 3.8c-0.39,-0.13 -0.79,-0.19 -1.2,-0.19z"/>
    </g>
    <g>
     <path class="fil1" d="M26.73 8.01l0 3.76c-2.51,0 -4.84,-0.8 -6.74,-2.17l0 9.85c0,4.92 -4,8.92 -8.92,8.92 -1.9,0 -3.66,-0.6 -5.11,-1.62 1.68,1.82 4.05,2.85 6.52,2.85 4.92,0 8.92,-4 8.92,-8.92l0 -9.85c1.96,1.42 4.32,2.18 6.74,2.17l0 -4.84c-0.48,0 -0.96,-0.06 -1.41,-0.16l0 0.01zm0 0l0 0 0 0z"/>
    </g>
    <path class="fil2" d="M19.99 19.45l0 -9.85c1.96,1.42 4.32,2.17 6.74,2.17l0 -3.76c-1.43,-0.31 -2.72,-1.07 -3.67,-2.18 -1.55,-1 -2.62,-2.6 -2.96,-4.41l-3.55 0 0 19.41c-0.08,2.18 -1.87,3.92 -4.07,3.92 -1.31,0 -2.54,-0.63 -3.3,-1.69 -1.34,-0.71 -2.18,-2.09 -2.18,-3.61 0,-2.25 1.82,-4.07 4.07,-4.07 0.42,0 0.82,0.07 1.2,0.19l0 -3.8c-4.82,0.11 -8.71,4.06 -8.71,8.91 0,2.35 0.91,4.48 2.4,6.07 1.49,1.06 3.28,1.62 5.11,1.62 4.92,0 8.92,-4 8.92,-8.92z"/>
   </g>
  </g>
 </g>
</svg>
