<?xml version="1.0" encoding="UTF-8"?>
<!DOCTYPE svg PUBLIC "-//W3C//DTD SVG 1.1//EN" "http://www.w3.org/Graphics/SVG/1.1/DTD/svg11.dtd">
<!-- Creator: CorelDRAW -->
<svg xmlns="http://www.w3.org/2000/svg" xml:space="preserve" width="30px" height="30px" version="1.1" style="shape-rendering:geometricPrecision; text-rendering:geometricPrecision; image-rendering:optimizeQuality; fill-rule:evenodd; clip-rule:evenodd"
viewBox="0 0 30 30"
 xmlns:xlink="http://www.w3.org/1999/xlink"
 xmlns:xodm="http://www.corel.com/coreldraw/odm/2003">
 <defs>
  <style type="text/css">
   <![CDATA[
    .fil0 {fill:#00DC00;fill-rule:nonzero}
   ]]>
  </style>
 </defs>
 <g id="Слой_x0020_1">
  <metadata id="CorelCorpID_0Corel-Layer"/>
  <path class="fil0" d="M0.22 9.11l7.56 13.58c0.72,1.38 2.76,1.38 3.56,0l6.75 -12.13c1.45,-2.62 4.22,-4.22 7.19,-4.22l2.84 0c1.38,0 2.32,1.53 1.67,2.84l-7.63 13.51c-0.73,1.38 -2.76,1.38 -3.56,0l-6.68 -12.2c-1.46,-2.62 -4.22,-4.22 -7.2,-4.22l-2.83 0c-1.1,0 -1.86,0.91 -1.89,1.89l0 0.12c0.01,0.28 0.08,0.56 0.22,0.83z"/>
 </g>
</svg>
