<?xml version="1.0" encoding="UTF-8"?>
<!DOCTYPE svg PUBLIC "-//W3C//DTD SVG 1.1//EN" "http://www.w3.org/Graphics/SVG/1.1/DTD/svg11.dtd">
<!-- Creator: CorelDRAW -->
<svg xmlns="http://www.w3.org/2000/svg" xml:space="preserve" width="30px" height="30px" version="1.1" style="shape-rendering:geometricPrecision; text-rendering:geometricPrecision; image-rendering:optimizeQuality; fill-rule:evenodd; clip-rule:evenodd"
viewBox="0 0 30 30"
 xmlns:xlink="http://www.w3.org/1999/xlink"
 xmlns:xodm="http://www.corel.com/coreldraw/odm/2003">
 <defs>
  <style type="text/css">
   <![CDATA[
    .fil0 {fill:#F47421;fill-rule:nonzero}
    .fil1 {fill:white;fill-rule:nonzero}
   ]]>
  </style>
 </defs>
 <g id="Слой_x0020_1">
  <metadata id="CorelCorpID_0Corel-Layer"/>
  <g id="_1862977384992">
   <path id="roundel" class="fil0" d="M30 15c0,8.28 -6.72,15 -15,15 -8.28,0 -15,-6.72 -15,-15 0,-8.28 6.72,-15 15,-15 8.28,0 15,6.72 15,15z"/>
   <path id="circle-of-friends" class="fil1" d="M19.1 7.9c0.96,0.55 2.18,0.23 2.73,-0.73 0.56,-0.96 0.23,-2.18 -0.73,-2.74 -0.96,-0.55 -2.18,-0.22 -2.73,0.74 -0.56,0.95 -0.23,2.18 0.73,2.73zm-4.1 12.95c-0.88,0 -1.72,-0.2 -2.46,-0.54l-1.4 2.49c1.17,0.57 2.48,0.9 3.86,0.9 0.81,0 1.58,-0.11 2.32,-0.32 0.14,-0.8 0.61,-1.54 1.37,-1.98 0.76,-0.44 1.64,-0.48 2.41,-0.2 1.48,-1.45 2.44,-3.43 2.58,-5.64l-2.85 -0.04c-0.27,2.99 -2.77,5.33 -5.83,5.33zm0 -11.7c3.06,0 5.56,2.34 5.83,5.33l2.85 -0.04c-0.14,-2.21 -1.1,-4.19 -2.59,-5.64 -0.76,0.28 -1.64,0.24 -2.4,-0.2 -0.76,-0.44 -1.23,-1.18 -1.37,-1.98 -0.74,-0.21 -1.51,-0.32 -2.32,-0.32 -1.38,0 -2.69,0.33 -3.86,0.9l1.4 2.49c0.74,-0.34 1.58,-0.54 2.46,-0.54zm-5.85 5.85c0,-1.98 0.98,-3.73 2.49,-4.79l-1.47 -2.45c-1.75,1.17 -3.05,2.96 -3.59,5.06 0.63,0.51 1.03,1.3 1.03,2.18 0,0.88 -0.4,1.67 -1.03,2.18 0.54,2.1 1.84,3.89 3.59,5.06l1.47 -2.45c-1.51,-1.06 -2.49,-2.81 -2.49,-4.79zm9.95 7.1c-0.96,0.55 -1.29,1.78 -0.73,2.73 0.55,0.96 1.77,1.29 2.73,0.74 0.96,-0.56 1.29,-1.78 0.73,-2.74 -0.55,-0.96 -1.77,-1.28 -2.73,-0.73l0 0zm-14.3 -9.1c-1.11,0 -2,0.89 -2,2 0,1.11 0.89,2 2,2 1.11,0 2,-0.89 2,-2 0,-1.11 -0.89,-2 -2,-2z"/>
  </g>
 </g>
</svg>
