<?xml version="1.0" encoding="UTF-8"?>
<!DOCTYPE svg PUBLIC "-//W3C//DTD SVG 1.1//EN" "http://www.w3.org/Graphics/SVG/1.1/DTD/svg11.dtd">
<!-- Creator: CorelDRAW -->
<svg xmlns="http://www.w3.org/2000/svg" xml:space="preserve" width="30px" height="30px" version="1.1" style="shape-rendering:geometricPrecision; text-rendering:geometricPrecision; image-rendering:optimizeQuality; fill-rule:evenodd; clip-rule:evenodd"
viewBox="0 0 30 30"
 xmlns:xlink="http://www.w3.org/1999/xlink"
 xmlns:xodm="http://www.corel.com/coreldraw/odm/2003">
 <defs>
  <style type="text/css">
   <![CDATA[
    .fil0 {fill:#E2001A}
    .fil1 {fill:#FEFEFE}
   ]]>
  </style>
 </defs>
 <g id="Слой_x0020_1">
  <metadata id="CorelCorpID_0Corel-Layer"/>
  <g id="_2194579403968">
   <path class="fil0" d="M15.61 7.75c0.01,-0.02 0.02,-0.03 0.03,-0.04 0.23,-0.34 0.14,-0.59 -0.02,-0.72 -0.1,-0.09 -2.42,-1.5 -2.42,-1.5 -0.17,-0.11 -0.28,-0.3 -0.28,-0.52 0,-0.35 0.2,-0.61 0.67,-0.74 1.5,-0.41 6.76,-0.62 8.54,-0.62 0.62,0 1.69,-0.01 2.65,0.02l-0.04 -0.04c-2.62,-2.24 -6.02,-3.59 -9.74,-3.59 -8.28,0 -15,6.72 -15,15 0,3.64 1.3,6.98 3.46,9.58 1.88,-2.71 6.53,-9.39 7.55,-10.76 1.18,-1.57 3.86,-5.06 4.31,-5.66l0.02 -0.03 0.27 -0.38 0 0z"/>
   <path class="fil0" d="M5.85 26.89c2.54,1.95 5.71,3.11 9.15,3.11 8.29,0 15,-6.72 15,-15 0,-2.51 -0.62,-4.87 -1.7,-6.95l0 0c0.52,-0.49 1.11,-1.28 0.72,-2.27 -0.12,-0.29 -0.71,-0.96 -0.86,-1.12l0.03 0.06c0.36,1.1 -0.36,1.79 -0.88,2.26 -0.29,0.26 -4.09,3.85 -8.56,7.75 -3.94,3.45 -8.34,6.95 -10.89,8.86 -3.59,2.68 -4.29,3.08 -4.29,3.08 -0.09,0.05 -0.25,0.09 -0.37,0.09 -0.22,0 -0.41,-0.1 -0.53,-0.25l0 -0.01c-0.02,0.05 -0.03,0.09 -0.01,0.12 0.38,0.62 1.02,1.34 1.39,1.34 0.12,0 0.28,-0.04 0.37,-0.09 0,0 0.29,-0.16 1.43,-0.98z"/>
   <path class="fil1" d="M15.63 7.71c0.24,-0.34 0.14,-0.59 -0.01,-0.72 -0.1,-0.09 -2.43,-1.5 -2.43,-1.5 -0.17,-0.11 -0.28,-0.3 -0.28,-0.52 0,-0.35 0.21,-0.61 0.68,-0.74 1.49,-0.41 6.75,-0.62 8.54,-0.62 0.84,0 2.51,-0.01 3.61,0.06 1.23,0.08 2.17,0.34 2.4,0.94 0.46,1.17 -0.3,1.89 -0.83,2.37 -0.29,0.26 -4.1,3.85 -8.56,7.76 -3.94,3.44 -8.34,6.94 -10.9,8.85 -3.58,2.69 -4.28,3.08 -4.28,3.08 -0.1,0.05 -0.25,0.09 -0.37,0.09 -0.37,0 -0.66,-0.28 -0.66,-0.65 0,-0.14 0.04,-0.28 0.11,-0.38 0,0 7.07,-10.18 8.36,-11.91 1.28,-1.71 4.37,-5.74 4.37,-5.74 0,0 0.03,-0.05 0.25,-0.37z"/>
  </g>
 </g>
</svg>
