<?xml version="1.0" encoding="UTF-8"?>
<!DOCTYPE svg PUBLIC "-//W3C//DTD SVG 1.1//EN" "http://www.w3.org/Graphics/SVG/1.1/DTD/svg11.dtd">
<!-- Creator: CorelDRAW 2021.5 -->
<svg xmlns="http://www.w3.org/2000/svg" xml:space="preserve" width="30px" height="30px" version="1.1" style="shape-rendering:geometricPrecision; text-rendering:geometricPrecision; image-rendering:optimizeQuality; fill-rule:evenodd; clip-rule:evenodd"
viewBox="0 0 30 30"
 xmlns:xlink="http://www.w3.org/1999/xlink"
 xmlns:xodm="http://www.corel.com/coreldraw/odm/2003">
 <defs>
  <style type="text/css">
   <![CDATA[
    .fil4 {fill:none;fill-rule:nonzero}
    .fil0 {fill:#0077FF;fill-rule:nonzero;fill-opacity:0.000000}
    .fil2 {fill:#FF22A6}
    .fil3 {fill:white}
    .fil1 {fill:#0077FF;fill-rule:nonzero}
   ]]>
  </style>
   <clipPath id="id0" style="clip-rule:nonzero">
    <path d="M0 14.4c0,-6.79 0,-10.18 2.11,-12.29 2.11,-2.11 5.5,-2.11 12.29,-2.11l1.2 0c6.79,0 10.18,0 12.29,2.11 2.11,2.11 2.11,5.5 2.11,12.29l0 1.2c0,6.79 0,10.18 -2.11,12.29 -2.11,2.11 -5.5,2.11 -12.29,2.11l-1.2 0c-6.79,0 -10.18,0 -12.29,-2.11 -2.11,-2.11 -2.11,-5.5 -2.11,-12.29l0 -1.2z"/>
   </clipPath>
   <clipPath id="id1" style="clip-rule:nonzero">
    <path d="M0 14.4c0,-6.79 0,-10.18 2.11,-12.29 2.11,-2.11 5.5,-2.11 12.29,-2.11l1.2 0c6.79,0 10.18,0 12.29,2.11 2.11,2.11 2.11,5.5 2.11,12.29l0 1.2c0,6.79 0,10.18 -2.11,12.29 -2.11,2.11 -5.5,2.11 -12.29,2.11l-1.2 0c-6.79,0 -10.18,0 -12.29,-2.11 -2.11,-2.11 -2.11,-5.5 -2.11,-12.29l0 -1.2z"/>
   </clipPath>
 </defs>
 <g id="Слой_x0020_1">
  <metadata id="CorelCorpID_0Corel-Layer"/>
  <g style="clip-path:url(#id0)">
   <polygon class="fil0" points="0,0 30,0 30,30 0,30 "/>
  </g>
  <g style="clip-path:url(#id1)">
   <g id="_2558243013552">
    <path id="_1" class="fil1" d="M0 14.4c0,-6.79 0,-10.18 2.11,-12.29 2.11,-2.11 5.5,-2.11 12.29,-2.11l1.2 0c6.79,0 10.18,0 12.29,2.11 2.11,2.11 2.11,5.5 2.11,12.29l0 1.2c0,6.79 0,10.18 -2.11,12.29 -2.11,2.11 -5.5,2.11 -12.29,2.11l-1.2 0c-6.79,0 -10.18,0 -12.29,-2.11 -2.11,-2.11 -2.11,-5.5 -2.11,-12.29l0 -1.2z"/>
    <path class="fil2" d="M29.99 11.5l-14.99 12.17 -14.99 -12.17c0.04,-4.9 0.31,-7.61 2.1,-9.39 2.11,-2.11 5.5,-2.11 12.29,-2.11l1.2 0c6.79,0 10.18,0 12.29,2.11 1.79,1.78 2.06,4.49 2.1,9.39z"/>
    <path class="fil3" d="M11.05 22.47l-0.01 -0.01c-1.61,-1.26 -3.02,-2.38 -3.96,-3.56 -1.14,-1.4 -1.64,-2.87 -1.64,-4.63 0,-3.63 2.96,-6.48 6.48,-6.48 1.14,0 2.16,0.28 3.07,0.77 0.92,-0.49 1.95,-0.77 3.09,-0.77 3.52,0 6.48,2.85 6.48,6.48 0,1.76 -0.5,3.23 -1.64,4.63 -0.94,1.18 -2.35,2.3 -3.96,3.56l-0.01 0.01 -1.7 1.32c-1.33,1.03 -3.17,1.03 -4.5,0l-1.7 -1.32zm5.45 -11.3c-0.54,0.27 -1.04,0.69 -1.5,1.25 -0.48,-0.58 -1,-1 -1.56,-1.27 -0.47,-0.22 -0.98,-0.34 -1.52,-0.34 -1.91,0 -3.48,1.55 -3.48,3.46 0,2.15 1.09,3.19 4.44,5.81l1.7 1.32c0.25,0.19 0.59,0.19 0.84,0l1.7 -1.32c3.35,-2.62 4.44,-3.66 4.44,-5.81 0,-1.91 -1.57,-3.46 -3.48,-3.46 -0.56,0 -1.09,0.12 -1.58,0.36z"/>
   </g>
  </g>
  <path class="fil4" d="M0 14.4c0,-6.79 0,-10.18 2.11,-12.29 2.11,-2.11 5.5,-2.11 12.29,-2.11l1.2 0c6.79,0 10.18,0 12.29,2.11 2.11,2.11 2.11,5.5 2.11,12.29l0 1.2c0,6.79 0,10.18 -2.11,12.29 -2.11,2.11 -5.5,2.11 -12.29,2.11l-1.2 0c-6.79,0 -10.18,0 -12.29,-2.11 -2.11,-2.11 -2.11,-5.5 -2.11,-12.29l0 -1.2z"/>
 </g>
</svg>
