<?xml version="1.0" encoding="UTF-8"?>
<!DOCTYPE svg PUBLIC "-//W3C//DTD SVG 1.1//EN" "http://www.w3.org/Graphics/SVG/1.1/DTD/svg11.dtd">
<!-- Creator: CorelDRAW -->
<svg xmlns="http://www.w3.org/2000/svg" xml:space="preserve" width="30px" height="30px" version="1.1" style="shape-rendering:geometricPrecision; text-rendering:geometricPrecision; image-rendering:optimizeQuality; fill-rule:evenodd; clip-rule:evenodd"
viewBox="0 0 30 30"
 xmlns:xlink="http://www.w3.org/1999/xlink"
 xmlns:xodm="http://www.corel.com/coreldraw/odm/2003"
 enable-background="new 0 0 612 792">
 <defs>
  <style type="text/css">
   <![CDATA[
    .fil0 {fill:#FC3F1D;fill-rule:nonzero}
    .fil1 {fill:white;fill-rule:nonzero}
   ]]>
  </style>
 </defs>
 <g id="Слой_x0020_1">
  <metadata id="CorelCorpID_0Corel-Layer"/>
  <path class="fil0" d="M30 15c0,0.99 -0.1,1.96 -0.29,2.93 -0.19,0.96 -0.48,1.9 -0.85,2.81 -0.38,0.91 -0.84,1.77 -1.39,2.59 -0.55,0.82 -1.17,1.58 -1.86,2.28 -0.7,0.69 -1.46,1.32 -2.28,1.86 -0.82,0.55 -1.68,1.01 -2.59,1.39 -0.91,0.38 -1.85,0.66 -2.81,0.85 -0.97,0.19 -1.95,0.29 -2.93,0.29 -0.99,0 -1.96,-0.1 -2.93,-0.29 -0.96,-0.19 -1.9,-0.47 -2.81,-0.85 -0.91,-0.38 -1.77,-0.84 -2.59,-1.39 -0.82,-0.54 -1.58,-1.17 -2.28,-1.86 -0.69,-0.7 -1.32,-1.46 -1.86,-2.28 -0.55,-0.82 -1.01,-1.68 -1.39,-2.59 -0.38,-0.91 -0.66,-1.85 -0.85,-2.81 -0.19,-0.97 -0.29,-1.94 -0.29,-2.93 0,-0.98 0.1,-1.96 0.29,-2.93 0.19,-0.96 0.47,-1.9 0.85,-2.81 0.38,-0.91 0.84,-1.77 1.39,-2.59 0.54,-0.82 1.17,-1.58 1.86,-2.28 0.7,-0.69 1.46,-1.32 2.28,-1.86 0.82,-0.55 1.68,-1.01 2.59,-1.39 0.91,-0.37 1.85,-0.66 2.81,-0.85 0.97,-0.19 1.94,-0.29 2.93,-0.29 0.98,0 1.96,0.1 2.93,0.29 0.96,0.19 1.9,0.48 2.81,0.85 0.91,0.38 1.77,0.84 2.59,1.39 0.82,0.54 1.58,1.17 2.28,1.86 0.69,0.7 1.31,1.46 1.86,2.28 0.55,0.82 1.01,1.68 1.39,2.59 0.37,0.91 0.66,1.85 0.85,2.81 0.19,0.97 0.29,1.95 0.29,2.93z"/>
  <path class="fil1" d="M17.81 8.44l-1.47 0c-2.68,0 -3.88,1.34 -3.88,3.21 0,2.14 0.8,3.22 2.81,4.56l1.47 1.07 -4.28 6.69 -3.49 0 4.15 -6.02c-2.41,-1.74 -3.61,-3.22 -3.61,-6.03 0,-3.48 2.41,-5.89 6.96,-5.89l4.56 0 0 17.94 -3.08 0 0 -15.53 -0.14 0z"/>
 </g>
</svg>
